<svg xmlns="http://www.w3.org/2000/svg" viewBox="0 0 200 60" fill="none">
  <path d="M30 10C18.954 10 10 18.954 10 30C10 41.046 18.954 50 30 50C41.046 50 50 41.046 50 30C50 18.954 41.046 10 30 10Z" fill="#34D399"/>
  <path d="M30 15C21.716 15 15 21.716 15 30C15 38.284 21.716 45 30 45C38.284 45 45 38.284 45 30C45 21.716 38.284 15 30 15Z" fill="white"/>
  <path d="M60 15H80V25H60V15Z" fill="#34D399"/>
  <path d="M90 15H180V25H90V15Z" fill="#34D399"/>
  <path d="M60 35H150V45H60V35Z" fill="#34D399"/>
</svg>